<svg xmlns="http://www.w3.org/2000/svg" preserveAspectRatio="xMidYMid" width="24" height="24"><path d="M5.427 2.611c0 1.436-1.047 2.6-2.768 2.6-1.62 0-2.667-1.164-2.667-2.6 0-1.47 1.082-2.6 2.735-2.6 1.653 0 2.666 1.13 2.7 2.6zM.128 23.99V7.264h5.131V23.99H.128zm8.201-11.391c0-2.086-.067-3.83-.136-5.335h4.456l.238 2.327h.101c.675-1.096 2.329-2.703 5.097-2.703 3.375 0 5.907 2.292 5.907 7.217v9.886h-5.131v-9.269c0-2.155-.744-3.627-2.6-3.627-1.417 0-2.26.992-2.632 1.95-.135.342-.169.82-.169 1.3v9.646H8.329V12.599z" fill-rule="evenodd" fill="#fff"/></svg>