<svg xmlns="http://www.w3.org/2000/svg" preserveAspectRatio="xMidYMid" width="24" height="20"><path d="M23.992 2.315a9.863 9.863 0 0 1-2.828.775A4.933 4.933 0 0 0 23.329.367a9.864 9.864 0 0 1-3.127 1.195A4.91 4.91 0 0 0 16.608.007a4.924 4.924 0 0 0-4.796 6.045A13.982 13.982 0 0 1 1.663.908a4.898 4.898 0 0 0-.667 2.475A4.92 4.92 0 0 0 3.187 7.48a4.9 4.9 0 0 1-2.23-.615l-.001.061a4.926 4.926 0 0 0 3.95 4.827 4.909 4.909 0 0 1-2.224.085 4.929 4.929 0 0 0 4.6 3.418 9.876 9.876 0 0 1-6.115 2.108 9.9 9.9 0 0 1-1.175-.069 13.937 13.937 0 0 0 7.548 2.212c9.057 0 14.009-7.501 14.009-14.007 0-.214-.004-.425-.014-.636a10.008 10.008 0 0 0 2.457-2.549z" fill-rule="evenodd" fill="#fff"/></svg>