<?xml version="1.0" encoding="iso-8859-1"?>
<!-- Generator: Adobe Illustrator 19.2.0, SVG Export Plug-In . SVG Version: 6.00 Build 0)  -->
<svg version="1.1" xmlns="http://www.w3.org/2000/svg" xmlns:xlink="http://www.w3.org/1999/xlink" x="0px" y="0px"
	 viewBox="0 0 43.559 60" style="enable-background:new 0 0 43.559 60;" xml:space="preserve">
<g id="_x33_2">
	<g>
		<g>
			<path style="fill:#FFFFFF;" d="M20.3,59c-1.38,0-2.576-0.934-2.91-2.271C15.28,48.276,11.739,33.822,11.739,32
				c0-3.154,6.265-3.625,10-3.625c3.735,0,10,0.471,10,3.625c0,2.321-3.949,18.077-5.647,24.744C25.754,58.072,24.56,59,23.187,59
				H20.3z"/>
			<path style="fill:#B3B3B3;" d="M21.739,29.375c5.5,0,9,0.989,9,2.625c0,2.266-4.292,19.298-5.616,24.497
				C24.898,57.384,24.101,58,23.186,58H20.3c-0.918,0-1.717-0.622-1.94-1.513C17.043,51.209,12.739,33.829,12.739,32
				C12.739,30.364,16.239,29.375,21.739,29.375 M21.739,27.375L21.739,27.375c-7.299,0-11,1.556-11,4.625
				c0,1.47,1.911,9.871,5.681,24.972C16.865,58.755,18.461,60,20.3,60h2.886c1.831,0,3.424-1.237,3.875-3.009
				c2.59-10.173,5.678-22.766,5.678-24.991C32.739,28.931,29.038,27.375,21.739,27.375L21.739,27.375z"/>
		</g>
		<g>
			<path style="fill:#FFFFFF;" d="M21.739,34c-4.628,0-15.468,0-16.428-5.954c-0.3-1.861-0.999-3.488-1.739-5.211
				c-0.846-1.97-1.721-4.007-2.195-6.693c-0.517-2.932-0.441-5.536,0.231-7.96C2.817,3.819,6.86,1,11.907,1
				c0.702,0,1.413,0.056,2.115,0.167c0.753,0.118,1.501,0.257,2.248,0.396c1.922,0.357,3.737,0.694,5.641,0.694l0.254-0.002
				c1.694-0.028,3.308-0.336,5.018-0.663c0.722-0.138,1.443-0.276,2.171-0.392c0.791-0.126,1.579-0.19,2.343-0.19
				c5.63,0,9.796,3.386,10.613,8.625c0.637,4.085,0.051,7.905-1.741,11.354l-0.247,0.474c-1.2,2.3-1.649,3.161-1.649,5.715
				C38.672,33.508,25.712,34,21.739,34z"/>
			<path style="fill:#72C211;" d="M11.907,2c0.649,0,1.306,0.051,1.959,0.154c2.673,0.42,5.279,1.102,8.043,1.102
				c0.09,0,0.181-0.001,0.272-0.002c2.524-0.041,4.894-0.679,7.33-1.067c0.75-0.12,1.479-0.178,2.186-0.178
				c5.06,0,8.878,2.99,9.625,7.779c0.579,3.714,0.123,7.346-1.64,10.739c-1.403,2.7-2.009,3.671-2.009,6.651
				c0,4.757-10.266,5.822-15.933,5.822S7.073,32.688,6.298,27.887c-0.662-4.104-3.059-6.943-3.937-11.919
				c-0.445-2.521-0.483-5.022,0.21-7.519C3.761,4.159,7.694,2,11.907,2 M12,0v2V0C6,0,2.024,3.106,0.69,7.915
				c-0.713,2.572-0.819,5.32-0.275,8.401c0.494,2.8,1.421,4.986,2.249,6.914c0.746,1.737,1.384,3.237,1.665,4.976
				C5.426,35,16.445,35,21.742,35c4.207,0,17.931-0.564,17.931-7.822c0-2.311,0.356-2.994,1.537-5.257l0.245-0.471
				c1.893-3.642,2.512-7.669,1.841-11.97C42.4,3.726,37.846,0.009,31.696,0.009c-0.816,0-1.658,0.068-2.501,0.203
				c-0.747,0.119-1.485,0.26-2.2,0.397c-1.666,0.318-3.24,0.619-4.848,0.646l-0.239,0.002c-1.811,0-3.583-0.329-5.459-0.677
				c-0.756-0.14-1.465-0.281-2.227-0.4C13.471,0.06,13,0,12,0L12,0z"/>
		</g>
		<path style="fill:#F2F2F2;" d="M39.345,10.096c-0.331-2.125-1.434-3.772-3.061-4.821c0.519,0.817,0.894,1.753,1.061,2.821
			c0.536,3.44-1.948,6.64-3.439,9.509l-0.242,0.465c-1.285,2.46-1.992,3.816-1.992,7.107c0,2.146-4.511,4.028-11.933,4.028
			c-6.288,0-9.659-0.744-11.459-1.601c0.206,1.112,1.957,3.601,13.459,3.601c7.422,0,13.933-1.882,13.933-4.028
			c0-3.292,0.708-4.647,1.992-7.107l0.242-0.465C39.398,16.736,39.881,13.537,39.345,10.096z"/>
		<path style="fill:none;stroke:#B3B3B3;stroke-width:1.6;stroke-linecap:round;stroke-linejoin:round;stroke-miterlimit:10;" d="
			M10.739,35c1.484,3.958,17.853,6.125,22,3"/>
		<path style="fill:none;stroke:#B3B3B3;stroke-width:1.6;stroke-linecap:round;stroke-linejoin:round;stroke-miterlimit:10;" d="
			M11.739,41c1.349,3.581,16.23,5.542,20,2.714"/>
		<path style="fill:none;stroke:#B3B3B3;stroke-width:1.6;stroke-linecap:round;stroke-linejoin:round;stroke-miterlimit:10;" d="
			M13.239,47c1.147,3.044,13.796,4.71,17,2.307"/>
		<path style="fill:none;stroke:#B3B3B3;stroke-width:1.6;stroke-linecap:round;stroke-linejoin:round;stroke-miterlimit:10;" d="
			M14.739,52c0.944,2.507,11.361,3.879,14,1.9"/>
	</g>
</g>
<g id="Layer_1">
</g>
</svg>
