<?xml version="1.0" encoding="iso-8859-1"?>
<!-- Generator: Adobe Illustrator 19.2.0, SVG Export Plug-In . SVG Version: 6.00 Build 0)  -->
<svg version="1.1" xmlns="http://www.w3.org/2000/svg" xmlns:xlink="http://www.w3.org/1999/xlink" x="0px" y="0px"
	 viewBox="0 0 64 48.041" style="enable-background:new 0 0 64 48.041;" xml:space="preserve">
<g id="_x38_1">
	<g>
		<g>
			<g>
				<path style="fill:#FFFFFF;stroke:#B3B3B3;stroke-width:2;stroke-miterlimit:10;" d="M32,0.96c-9.875,0-18,14.799-18,31.033
					s9.25,15.049,12,15.049s9.25,0,12,0s12,1.186,12-15.049S42.125,0.96,32,0.96z"/>
				
					<path style="fill:#FFFFFF;stroke:#B3B3B3;stroke-width:2;stroke-linecap:round;stroke-linejoin:round;stroke-miterlimit:10;" d="
					M1,46.96c2.75,0,13,1.227,13-15.008C14,18.512,8.603,5.84,1,1.96"/>
				
					<path style="fill:#FFFFFF;stroke:#B3B3B3;stroke-width:2;stroke-linecap:round;stroke-linejoin:round;stroke-miterlimit:10;" d="
					M63,46.96c-2.75,0-13,1.227-13-15.008C50,18.512,55.397,5.84,63,1.96"/>
				<path style="fill:none;stroke:#B3B3B3;stroke-width:2;stroke-linecap:round;stroke-linejoin:round;stroke-miterlimit:10;" d="
					M12,16.96c0.646-0.646,3.271-0.729,4,0"/>
				<path style="fill:none;stroke:#B3B3B3;stroke-width:2;stroke-linecap:round;stroke-linejoin:round;stroke-miterlimit:10;" d="
					M48,16.96c0.646-0.646,3.271-0.729,4,0"/>
			</g>
			<path style="fill:#F2F2F2;" d="M1,44.981c6,0,9.752-3.664,10-12c0.25-8.417-2-17.917-5-23c0,0,5.5,20.917,0,28
				C3.252,41.519,1,41.981,1,44.981z"/>
			<path style="fill:#F2F2F2;" d="M54,40.981c2.097,3.408,5.917,4.083,9,4v-3C59.417,42.147,52.667,38.814,54,40.981z"/>
			<path style="fill:#F2F2F2;" d="M35.677,3.812C41.077,8.583,45,18.773,45,29.963c0,5.54-0.711,9.158-3,11.018
				c-3.333,2.708-13.292,3-17,3c-3.583,0-5.214-0.993-6.344-1.335c1.955,2.344,4.515,2.351,5.972,2.351
				c0.284,0,14.459,0.005,14.743,0.005c1.605,0,3.663-0.194,5.334-1.707C46.892,41.315,48,37.502,48,31.963
				C48,18.788,42.563,7.001,35.677,3.812z"/>
		</g>
		<g>
			<path style="fill:#FFFFFF;" d="M6,33.98c-0.552,0-1-0.447-1-1v-2c0-0.553,0.448-1,1-1h15c0.552,0,1,0.447,1,1v2
				c0,0.553-0.448,1-1,1H6z"/>
			<path style="fill:#B3B3B3;" d="M21,30.981v2H6v-2H21 M21,28.981H6c-1.105,0-2,0.895-2,2v2c0,1.105,0.895,2,2,2h15
				c1.105,0,2-0.895,2-2v-2C23,29.876,22.105,28.981,21,28.981L21,28.981z"/>
		</g>
		<g>
			<path style="fill:#FFFFFF;" d="M43,33.98c-0.553,0-1-0.447-1-1v-2c0-0.553,0.447-1,1-1h15c0.553,0,1,0.447,1,1v2
				c0,0.553-0.447,1-1,1H43z"/>
			<path style="fill:#B3B3B3;" d="M58,30.981v2H43v-2H58 M58,28.981H43c-1.105,0-2,0.895-2,2v2c0,1.105,0.895,2,2,2h15
				c1.105,0,2-0.895,2-2v-2C60,29.876,59.105,28.981,58,28.981L58,28.981z"/>
		</g>
		<g>
			<path style="fill:#FFFFFF;" d="M23,38.98c-0.552,0-1-0.447-1-1v-12c0-0.553,0.448-1,1-1h18c0.553,0,1,0.447,1,1v12
				c0,0.553-0.447,1-1,1H23z"/>
			<path style="fill:#72C211;" d="M41,25.981v12H23v-12H41 M41,23.981H23c-1.105,0-2,0.895-2,2v12c0,1.105,0.895,2,2,2h18
				c1.105,0,2-0.895,2-2v-12C43,24.876,42.105,23.981,41,23.981L41,23.981z"/>
		</g>
		
			<line style="fill:none;stroke:#72C211;stroke-width:2;stroke-linecap:round;stroke-linejoin:round;stroke-miterlimit:10;" x1="27" y1="24.041" x2="27" y2="40.041"/>
		
			<line style="fill:none;stroke:#72C211;stroke-width:2;stroke-linecap:round;stroke-linejoin:round;stroke-miterlimit:10;" x1="37" y1="24.041" x2="37" y2="40.041"/>
		<g>
			
				<polyline style="fill:#FFFFFF;stroke:#72C211;stroke-width:2;stroke-linecap:round;stroke-linejoin:round;stroke-miterlimit:10;" points="
				1,25.041 5,25.041 5,39.041 1,39.041 			"/>
		</g>
		<g>
			
				<polyline style="fill:#FFFFFF;stroke:#72C211;stroke-width:2;stroke-linecap:round;stroke-linejoin:round;stroke-miterlimit:10;" points="
				63,25.041 59,25.041 59,39.041 63,39.041 			"/>
		</g>

	</g>
</g>
<g id="Layer_1">
</g>
</svg>
