<?xml version="1.0" encoding="iso-8859-1"?>
<!-- Generator: Adobe Illustrator 19.2.0, SVG Export Plug-In . SVG Version: 6.00 Build 0)  -->
<svg version="1.1" xmlns="http://www.w3.org/2000/svg" xmlns:xlink="http://www.w3.org/1999/xlink" x="0px" y="0px"
	 viewBox="0 0 52 64" style="enable-background:new 0 0 52 64;" xml:space="preserve">
<g>
	<g>
		<g>
			<path style="fill:#FFFFFF;" d="M13.511,63c-0.515,0-1.007-0.172-1.383-0.484c-2.009-1.664-2.869-3.146-3.606-4.999
				c-1.249-3.137-1.685-6.449-2.057-9.852c-0.428-3.923-0.641-8.039-0.651-12.583c0-0.202-0.115-0.439-0.266-0.728
				c-0.207-0.398-0.419-0.794-0.631-1.19c-1.052-1.961-2.14-3.99-2.573-6.246c-0.522-2.719-0.444-5.119,0.238-7.335
				C3.813,15.584,7.897,13,12.986,13c0.704,0,1.419,0.051,2.124,0.15c0.761,0.108,1.517,0.234,2.272,0.36
				c1.95,0.326,3.792,0.634,5.728,0.634l0.261-0.002c1.726-0.025,3.365-0.308,5.101-0.606c0.729-0.125,1.457-0.25,2.19-0.356
				c0.795-0.114,1.588-0.172,2.354-0.172c5.685,0,9.896,3.108,10.729,7.918c0.632,3.647,0.089,7.066-1.615,10.164
				c-1.349,2.454-2.043,4.969-2.063,7.476c-0.056,6.678-0.66,12.02-1.903,16.811c-0.559,2.154-1.407,3.908-2.595,5.362
				c-0.539,0.66-0.938,1.036-1.6,1.659c-0.378,0.356-0.891,0.554-1.442,0.554c-0.614,0-1.186-0.247-1.567-0.678
				c-0.592-0.667-1.146-1.342-1.406-2.247c-0.364-1.267-0.587-2.731-0.699-4.609c-0.216-3.564-1.105-6.671-2.722-9.494
				c-0.517-0.904-1.124-1.837-2.06-2.535c-0.302-0.226-0.693-0.35-1.101-0.35c-0.368,0-0.718,0.104-0.985,0.294
				c-0.746,0.528-1.265,1.236-1.634,1.795c-1.333,2.018-2.235,4.312-2.841,7.219c-0.208,1-0.287,2.028-0.37,3.116
				c-0.096,1.259-0.195,2.56-0.513,3.845c-0.234,0.949-0.643,2.169-1.727,3.172C14.539,62.814,14.044,63,13.511,63z"/>
			<path style="fill:#B3B3B3;" d="M12.986,14c0.658,0,1.321,0.047,1.983,0.14c2.705,0.383,5.343,1.004,8.141,1.004
				c0.092,0,0.183-0.001,0.275-0.002c2.555-0.038,4.954-0.618,7.419-0.973c0.759-0.109,1.498-0.162,2.212-0.162
				c5.122,0,8.986,2.724,9.742,7.089c0.569,3.285,0.151,6.498-1.505,9.511c-1.378,2.507-2.166,5.205-2.188,7.95
				c-0.045,5.546-0.454,11.11-1.871,16.568c-0.453,1.746-1.172,3.474-2.401,4.98c-0.487,0.596-0.843,0.935-1.511,1.564
				c-0.2,0.189-0.479,0.281-0.757,0.281c-0.31,0-0.619-0.115-0.819-0.34c-0.579-0.652-0.999-1.181-1.194-1.861
				c-0.406-1.413-0.575-2.947-0.662-4.392c-0.208-3.443-1.047-6.78-2.851-9.932c-0.595-1.041-1.269-2.048-2.33-2.84
				c-0.484-0.362-1.093-0.548-1.699-0.548c-0.556,0-1.109,0.157-1.564,0.479c-0.81,0.575-1.39,1.303-1.889,2.059
				c-1.566,2.37-2.438,4.936-2.986,7.566c-0.473,2.272-0.315,4.661-0.874,6.925c-0.232,0.94-0.592,1.898-1.435,2.678
				C14.036,61.917,13.775,62,13.511,62c-0.27,0-0.543-0.087-0.745-0.254c-1.858-1.54-2.624-2.864-3.316-4.6
				c-1.226-3.081-1.642-6.387-1.991-9.59c-0.452-4.148-0.636-8.313-0.646-12.476c-0.001-0.432-0.179-0.805-0.378-1.188
				c-1.216-2.337-2.622-4.62-3.11-7.163c-0.441-2.298-0.489-4.577,0.212-6.852C4.741,15.968,8.723,14,12.986,14 M12.986,12
				c-5.538,0-9.997,2.861-11.361,7.288c-0.732,2.377-0.819,4.935-0.265,7.819c0.462,2.406,1.587,4.503,2.675,6.532
				c0.21,0.392,0.42,0.783,0.625,1.177c0.032,0.061,0.122,0.235,0.153,0.32c0.012,4.557,0.227,8.692,0.657,12.638
				c0.379,3.472,0.826,6.858,2.121,10.113c0.796,1.999,1.725,3.599,3.897,5.4C12.045,63.746,12.763,64,13.511,64
				c0.786,0,1.521-0.28,2.07-0.788c1.293-1.197,1.771-2.666,2.018-3.667c0.337-1.365,0.439-2.708,0.538-4.007
				c0.08-1.055,0.156-2.052,0.352-2.989c0.579-2.78,1.436-4.963,2.697-6.872c0.482-0.73,0.894-1.188,1.378-1.53
				c0.099-0.07,0.247-0.11,0.407-0.11c0.189,0,0.376,0.056,0.503,0.151c0.746,0.557,1.255,1.295,1.791,2.231
				c1.537,2.687,2.385,5.65,2.591,9.059c0.074,1.23,0.231,3.067,0.737,4.824c0.318,1.105,0.975,1.908,1.62,2.635
				c0.571,0.644,1.415,1.013,2.315,1.013c0.807,0,1.563-0.293,2.128-0.826c0.668-0.629,1.109-1.045,1.688-1.755
				c1.28-1.567,2.192-3.446,2.788-5.742c1.265-4.873,1.879-10.292,1.935-17.054c0.019-2.339,0.672-4.695,1.941-7.003
				c1.815-3.301,2.395-6.94,1.723-10.816c-0.921-5.314-5.518-8.747-11.713-8.747c-0.815,0-1.655,0.061-2.497,0.182
				c-0.744,0.107-1.482,0.234-2.221,0.361c-1.696,0.292-3.297,0.567-4.944,0.592l-0.245,0.002c-1.854,0-3.657-0.301-5.566-0.62
				c-0.763-0.128-1.526-0.255-2.295-0.364C14.499,12.054,13.737,12,12.986,12L12.986,12z"/>
		</g>
		<g>
			<g>
				<path style="fill:#F2F2F2;" d="M40.779,21.316c-0.368-2.121-1.597-3.752-3.426-4.719c0.721,0.861,1.216,1.909,1.426,3.119
					c0.54,3.12-1.446,4.63-3.355,7.048c-1.924,2.437-3.302,7.391-2.358,10.184c1.809,5.353,1.366,11.65,0.171,16.253
					c-0.322,1.24-1.06,5.2-0.774,6.191c0.038,0.132,0.094,0.259,0.171,0.392c0.165-0.172,0.314-0.343,0.486-0.553
					c0.954-1.168,1.646-2.618,2.117-4.43c1.194-4.603,1.775-9.768,1.829-16.253c0.024-2.893,0.817-5.781,2.358-8.584
					C40.863,27.345,41.319,24.436,40.779,21.316z"/>
			</g>
			<g>
				<path style="fill:#F2F2F2;" d="M14.648,44.121c-0.921,1.802-1.599,3.804-2.089,6.157c-0.239,1.146-0.327,2.297-0.412,3.41
					c-0.093,1.219,0.39,5.344,1.182,6.148c0.142-0.298,0.261-0.652,0.367-1.08c0.271-1.098,0.359-2.249,0.452-3.468
					c0.085-1.113,0.173-2.264,0.412-3.41c0.668-3.209,1.682-5.767,3.19-8.051c0.358-0.542,0.836-1.194,1.494-1.815
					C17.672,42.573,16.141,43.275,14.648,44.121z"/>
			</g>
		</g>
	</g>
	
		<polygon style="fill:#FFFFFF;stroke:#F77B01;stroke-width:2;stroke-linecap:round;stroke-linejoin:round;stroke-miterlimit:10;" points="
		3.326,13.434 1,7 6,9 6,3 11,8 13,1 17,8 22,1 25,9 31,2 33,11 39,4 40,13 45,8 45,15 51,14 45,20 	"/>
	<path style="fill:#FFFFFF;stroke:#F77B01;stroke-width:2;stroke-linecap:round;stroke-linejoin:round;stroke-miterlimit:10;" d="
		M45.309,20.844c0.465-2.635-8.556-6.429-20.149-8.476S3.791,10.799,3.326,13.434l-1.991,6.977c0.48-2.719,10.569-3.212,22.534-1.1
		s21.276,6.028,20.796,8.748L45.309,20.844z"/>
</g>
<g id="Layer_1">
</g>
</svg>
