<?xml version="1.0" encoding="iso-8859-1"?>
<!-- Generator: Adobe Illustrator 19.2.0, SVG Export Plug-In . SVG Version: 6.00 Build 0)  -->
<svg version="1.1" xmlns="http://www.w3.org/2000/svg" xmlns:xlink="http://www.w3.org/1999/xlink" x="0px" y="0px"
	 viewBox="0 0 43.998 58" style="enable-background:new 0 0 43.998 58;" xml:space="preserve">
<g id="_x38_2">
	<g>
		<g>
			<path style="fill:#FFFFFF;" d="M12.509,57c-0.529,0-1.05-0.202-1.428-0.556c-1.994-1.859-2.847-3.511-3.576-5.572
				c-1.24-3.503-1.674-7.214-2.043-11.024c-0.427-4.404-0.64-9.026-0.651-14.131c0-0.279-0.125-0.568-0.286-0.918
				c-0.207-0.448-0.419-0.894-0.632-1.34c-1.046-2.195-2.128-4.464-2.556-6.97c-0.516-3.021-0.439-5.684,0.233-8.142
				C2.792,3.884,6.88,1,11.984,1c0.71,0,1.431,0.058,2.141,0.171c0.761,0.121,1.517,0.263,2.272,0.405
				c1.946,0.366,3.784,0.712,5.711,0.712l0.259-0.002c1.715-0.028,3.349-0.345,5.079-0.68c0.73-0.142,1.461-0.283,2.197-0.402
				c0.801-0.129,1.599-0.195,2.372-0.195c5.693,0,9.905,3.463,10.73,8.823c0.624,4.049,0.088,7.849-1.595,11.292
				c-1.364,2.79-2.066,5.654-2.087,8.512c-0.056,7.496-0.658,13.488-1.896,18.855c-0.553,2.396-1.393,4.348-2.566,5.966
				c-0.534,0.735-0.933,1.158-1.593,1.858c-0.377,0.4-0.918,0.63-1.483,0.63c-0.637,0-1.222-0.278-1.604-0.764
				c-0.583-0.737-1.127-1.481-1.378-2.464c-0.36-1.409-0.58-3.041-0.692-5.136c-0.217-4.047-1.114-7.571-2.744-10.774
				c-0.521-1.026-1.134-2.086-2.082-2.882c-0.293-0.247-0.668-0.383-1.055-0.383c-0.353,0-0.678,0.111-0.94,0.32
				c-0.755,0.603-1.278,1.407-1.65,2.041c-1.344,2.288-2.255,4.89-2.866,8.188c-0.211,1.14-0.29,2.303-0.374,3.534
				c-0.095,1.407-0.194,2.861-0.507,4.288c-0.229,1.045-0.628,2.386-1.691,3.491C13.574,56.788,13.065,57,12.509,57z"/>
			<path style="fill:#B3B3B3;" d="M11.984,2c0.658,0,1.321,0.053,1.983,0.158c2.705,0.431,5.343,1.129,8.141,1.129
				c0.092,0,0.183-0.001,0.275-0.002c2.555-0.042,4.954-0.696,7.419-1.094c0.759-0.123,1.498-0.182,2.212-0.182
				c5.122,0,8.986,3.065,9.742,7.975c0.569,3.695,0.151,7.31-1.505,10.7c-1.378,2.821-2.166,5.855-2.188,8.944
				c-0.045,6.239-0.454,12.498-1.871,18.639c-0.453,1.965-1.172,3.909-2.401,5.603c-0.487,0.671-0.843,1.051-1.511,1.76
				c-0.2,0.212-0.479,0.316-0.757,0.316c-0.31,0-0.619-0.129-0.819-0.383c-0.579-0.734-0.999-1.329-1.194-2.093
				c-0.406-1.59-0.575-3.315-0.662-4.941c-0.208-3.873-1.047-7.628-2.851-11.174c-0.595-1.171-1.269-2.304-2.33-3.195
				c-0.484-0.407-1.093-0.617-1.699-0.617c-0.556,0-1.109,0.176-1.564,0.539c-0.81,0.647-1.39,1.466-1.889,2.317
				c-1.566,2.666-2.438,5.553-2.986,8.512c-0.473,2.555-0.315,5.243-0.874,7.79c-0.232,1.057-0.592,2.135-1.435,3.013
				C13.035,55.906,12.773,56,12.509,56c-0.27,0-0.543-0.098-0.745-0.286c-1.858-1.733-2.624-3.221-3.316-5.175
				c-1.226-3.466-1.642-7.186-1.991-10.789c-0.452-4.666-0.636-9.352-0.646-14.036c-0.001-0.486-0.179-0.905-0.378-1.336
				c-1.216-2.629-2.622-5.198-3.11-8.058c-0.441-2.585-0.489-5.149,0.212-7.709C3.739,4.214,7.721,2,11.984,2 M11.984,0
				C6.417,0,1.95,3.173,0.606,8.083c-0.712,2.601-0.796,5.406-0.255,8.574c0.451,2.643,1.564,4.977,2.639,7.234
				c0.211,0.442,0.421,0.884,0.627,1.328c0.128,0.276,0.193,0.445,0.194,0.501c0.011,5.133,0.225,9.786,0.655,14.225
				c0.375,3.874,0.818,7.651,2.097,11.263c0.78,2.204,1.694,3.971,3.837,5.97C10.969,57.708,11.718,58,12.509,58
				c0.818,0,1.603-0.329,2.154-0.902c1.235-1.286,1.689-2.797,1.946-3.97c0.329-1.499,0.43-2.991,0.528-4.433
				c0.081-1.202,0.158-2.338,0.359-3.422c0.589-3.179,1.461-5.678,2.744-7.863c0.489-0.832,0.924-1.377,1.412-1.766
				c0.106-0.084,0.23-0.102,0.316-0.102c0.151,0,0.301,0.054,0.413,0.148c0.764,0.642,1.285,1.492,1.834,2.57
				c1.565,3.076,2.427,6.47,2.636,10.374c0.073,1.362,0.227,3.396,0.722,5.329c0.299,1.171,0.909,2.01,1.561,2.836
				c0.574,0.727,1.445,1.144,2.39,1.144c0.84,0,1.646-0.344,2.212-0.944c0.663-0.703,1.101-1.168,1.674-1.957
				c1.254-1.728,2.148-3.798,2.731-6.328c1.256-5.445,1.867-11.506,1.922-19.074c0.02-2.706,0.688-5.425,1.985-8.08
				c1.773-3.629,2.34-7.627,1.685-11.883c-0.905-5.875-5.504-9.67-11.719-9.67c-0.827,0-1.678,0.07-2.532,0.208
				c-0.756,0.122-1.504,0.267-2.227,0.407c-1.686,0.326-3.279,0.635-4.906,0.662l-0.242,0.002c-1.833,0-3.627-0.337-5.526-0.694
				c-0.765-0.144-1.53-0.287-2.3-0.41C13.52,0.062,12.747,0,11.984,0L11.984,0z"/>
		</g>
		<g>
			<path style="fill:#F2F2F2;" d="M24.84,30.442c-2.424-2.754-3.929-6.368-4.104-10.275c-0.031-0.697,0.014-1.38,0.091-2.056
				c-4.06-2.799-6.689-7.524-6.924-12.778C13.855,4.26,13.946,3.209,14.15,2.19c-0.061-0.01-0.121-0.022-0.182-0.032
				C9.014,1.369,3.925,3.536,2.535,8.612c-0.701,2.56-0.654,5.124-0.212,7.709c0.488,2.86,1.894,5.429,3.11,8.058
				c0.199,0.431,0.378,0.85,0.378,1.336c0.01,4.684,0.193,9.37,0.646,14.036c0.349,3.603,0.765,7.323,1.991,10.789
				c0.691,1.953,1.457,3.442,3.316,5.175c0.399,0.373,1.081,0.39,1.457-0.002c0.843-0.878,1.203-1.956,1.435-3.013
				c0.559-2.547,0.401-5.235,0.874-7.79c0.548-2.959,1.42-5.846,2.986-8.512c0.5-0.851,1.079-1.67,1.889-2.317
				c0.95-0.758,2.335-0.702,3.263,0.078c0.359,0.302,0.662,0.639,0.945,0.988C24.561,33.628,24.618,32.073,24.84,30.442z"/>
		</g>
		<g>
			<path style="fill:#F2F2F2;" d="M39.777,10.23c-0.368-2.386-1.597-4.222-3.426-5.309c0.721,0.968,1.216,2.147,1.426,3.509
				c0.54,3.51-1.446,5.208-3.355,7.929c-1.924,2.741-3.302,8.315-2.358,11.457c1.809,6.022,1.366,13.106,0.171,18.284
				c-0.322,1.395-1.06,5.85-0.774,6.965c0.038,0.149,0.094,0.292,0.171,0.441c0.165-0.194,0.314-0.385,0.486-0.622
				c0.954-1.314,1.646-2.945,2.117-4.984c1.194-5.179,1.775-10.989,1.829-18.284c0.024-3.255,0.817-6.504,2.358-9.657
				C39.861,17.013,40.317,13.74,39.777,10.23z"/>
		</g>
		<g>
			<path style="fill:#E6E6E6;" d="M13.647,35.887c-0.921,2.027-1.599,4.279-2.089,6.927c-0.239,1.289-0.327,2.584-0.412,3.836
				c-0.093,1.371,0.39,6.012,1.182,6.917c0.142-0.336,0.261-0.733,0.367-1.215c0.271-1.235,0.359-2.53,0.452-3.901
				c0.085-1.252,0.173-2.547,0.412-3.836c0.668-3.61,1.682-6.488,3.19-9.058c0.358-0.609,0.836-1.343,1.494-2.042
				C16.67,34.145,15.139,34.935,13.647,35.887z"/>
		</g>
		<g>
			<path style="fill:#FFFFFF;" d="M32.998,19.75c-0.366,0-0.68-0.265-0.74-0.626l-0.53-3.182c-0.229-1.37-1.302-2.444-2.671-2.672
				l-3.182-0.53c-0.362-0.06-0.627-0.373-0.627-0.74s0.265-0.68,0.627-0.74l3.182-0.53c1.369-0.228,2.442-1.302,2.671-2.672
				l0.53-3.182c0.061-0.361,0.374-0.626,0.74-0.626s0.68,0.265,0.74,0.626l0.53,3.182c0.229,1.37,1.302,2.444,2.671,2.672
				l3.182,0.53c0.362,0.06,0.627,0.373,0.627,0.74s-0.265,0.68-0.627,0.74l-3.182,0.53c-1.369,0.228-2.442,1.302-2.671,2.672
				l-0.53,3.182C33.678,19.485,33.364,19.75,32.998,19.75z"/>
			<path style="fill:#72C211;" d="M32.998,5l0.53,3.182c0.281,1.686,1.602,3.007,3.288,3.288L39.998,12l-3.182,0.53
				c-1.686,0.281-3.007,1.602-3.288,3.288L32.998,19l-0.53-3.182c-0.281-1.686-1.602-3.007-3.288-3.288L25.998,12l3.182-0.53
				c1.686-0.281,3.007-1.602,3.288-3.288L32.998,5 M32.998,3.5c-0.733,0-1.359,0.53-1.48,1.253l-0.53,3.182
				c-0.176,1.054-1.001,1.879-2.055,2.055l-3.182,0.53c-0.723,0.121-1.253,0.746-1.253,1.48s0.53,1.359,1.253,1.48l3.182,0.53
				c1.054,0.176,1.879,1.001,2.055,2.055l0.53,3.182c0.121,0.723,0.746,1.253,1.48,1.253c0.733,0,1.359-0.53,1.48-1.253l0.53-3.182
				c0.176-1.054,1.001-1.879,2.055-2.055l3.182-0.53c0.723-0.121,1.253-0.746,1.253-1.48s-0.53-1.359-1.253-1.48l-3.182-0.53
				c-1.054-0.176-1.879-1.001-2.055-2.055l-0.53-3.182C34.357,4.03,33.731,3.5,32.998,3.5L32.998,3.5z"/>
		</g>
	</g>
</g>
<g id="Layer_1">
</g>
</svg>
