<svg xmlns="http://www.w3.org/2000/svg" xmlns:xlink="http://www.w3.org/1999/xlink" preserveAspectRatio="xMidYMid" width="71" height="63" viewBox="0 0 71 63">
  <defs>
    <style>

      .cls-2 {
        fill: #f6f6f6;
      }
    </style>
  </defs>
  <path d="M64.124,0.008 C64.124,0.008 6.366,0.008 6.366,0.008 C2.913,0.008 -0.005,2.958 -0.005,6.448 C-0.005,6.448 -0.005,40.412 -0.005,40.412 C-0.005,43.906 2.853,46.747 6.366,46.747 C6.366,46.747 24.022,46.747 24.022,46.747 C24.579,46.747 25.029,46.298 25.029,45.743 C25.029,45.188 24.579,44.740 24.022,44.740 C24.022,44.740 6.366,44.740 6.366,44.740 C3.963,44.740 2.008,42.798 2.008,40.412 C2.008,40.412 2.008,19.220 2.008,19.220 C2.008,19.220 68.481,19.220 68.481,19.220 C68.481,19.220 68.482,40.344 68.482,40.344 C68.246,43.821 66.126,44.753 66.017,44.799 C65.505,45.002 65.251,45.578 65.451,46.092 C65.651,46.608 66.233,46.868 66.753,46.666 C66.892,46.613 70.164,45.301 70.495,40.412 C70.495,40.412 70.495,6.448 70.495,6.448 C70.495,2.957 67.577,0.008 64.124,0.008 ZM6.366,2.015 C6.366,2.015 64.124,2.015 64.124,2.015 C66.486,2.015 68.481,4.046 68.481,6.448 C68.481,6.448 68.481,9.470 68.481,9.470 C68.481,9.470 2.008,9.470 2.008,9.470 C2.008,9.470 2.008,6.448 2.008,6.448 C2.008,4.045 4.004,2.015 6.366,2.015 ZM2.008,17.213 C2.008,17.213 2.008,11.478 2.008,11.478 C2.008,11.478 68.481,11.478 68.481,11.478 C68.481,11.478 68.481,17.213 68.481,17.213 C68.481,17.213 2.008,17.213 2.008,17.213 ZM57.638,35.852 C57.638,35.852 56.682,35.852 56.682,35.852 C56.682,35.852 56.682,31.866 56.682,31.866 C56.682,28.846 54.298,26.389 51.366,26.389 C51.366,26.389 41.801,26.389 41.801,26.389 C38.900,26.389 36.540,28.846 36.540,31.866 C36.540,31.866 36.540,35.852 36.540,35.852 C36.540,35.852 35.531,35.852 35.531,35.852 C32.597,35.852 30.209,38.315 30.209,41.341 C30.209,41.341 30.209,57.017 30.209,57.017 C30.209,60.050 32.596,62.519 35.531,62.519 C35.531,62.519 57.639,62.519 57.639,62.519 C60.552,62.519 63.013,59.999 63.013,57.017 C63.013,57.017 63.013,41.341 63.013,41.341 C63.012,38.366 60.552,35.852 57.638,35.852 ZM38.553,31.866 C38.553,29.952 40.010,28.396 41.801,28.396 C41.801,28.396 51.366,28.396 51.366,28.396 C53.187,28.396 54.668,29.952 54.668,31.866 C54.668,31.866 54.668,35.851 54.668,35.851 C54.668,35.851 38.553,35.851 38.553,35.851 C38.553,35.851 38.553,31.866 38.553,31.866 ZM60.999,57.017 C60.999,58.911 59.460,60.512 57.638,60.512 C57.638,60.512 35.530,60.512 35.530,60.512 C33.737,60.512 32.222,58.911 32.222,57.017 C32.222,57.017 32.222,41.341 32.222,41.341 C32.222,39.421 33.707,37.859 35.530,37.859 C35.530,37.859 37.547,37.859 37.547,37.859 C37.547,37.859 55.675,37.859 55.675,37.859 C55.675,37.859 57.639,37.859 57.639,37.859 C59.461,37.859 61.000,39.454 61.000,41.341 C61.000,41.341 61.000,57.017 61.000,57.017 C61.000,57.017 60.999,57.017 60.999,57.017 ZM46.587,41.187 C44.800,41.187 43.179,42.243 42.459,43.879 C42.209,44.443 42.083,45.051 42.083,45.683 C42.083,45.738 42.088,45.794 42.098,45.851 C42.134,46.756 42.455,47.633 43.034,48.394 C43.367,48.832 43.808,49.219 44.311,49.518 C44.311,49.518 44.311,57.501 44.311,57.501 C44.311,58.055 44.761,58.504 45.318,58.504 C45.318,58.504 47.908,58.504 47.908,58.504 C48.464,58.504 48.915,58.055 48.915,57.501 C48.915,57.501 48.915,49.516 48.915,49.516 C49.399,49.223 49.823,48.842 50.165,48.394 C50.757,47.615 51.078,46.708 51.097,45.761 C51.098,45.734 51.099,45.705 51.099,45.683 C51.099,45.058 50.972,44.451 50.718,43.880 C49.995,42.243 48.375,41.187 46.587,41.187 ZM49.081,45.708 C49.074,46.365 48.792,46.873 48.558,47.181 C48.296,47.525 47.926,47.809 47.516,47.980 C47.142,48.135 46.899,48.501 46.899,48.905 C46.899,48.905 46.899,56.499 46.899,56.499 C46.899,56.499 46.322,56.499 46.322,56.499 C46.322,56.499 46.322,48.905 46.322,48.905 C46.322,48.501 46.079,48.136 45.704,47.980 C45.276,47.801 44.887,47.510 44.637,47.181 C44.399,46.868 44.114,46.359 44.108,45.718 C44.108,45.673 44.104,45.628 44.098,45.581 C44.110,45.267 44.178,44.967 44.301,44.687 C44.701,43.780 45.598,43.194 46.586,43.194 C47.574,43.194 48.471,43.780 48.871,44.688 C49.006,44.994 49.077,45.319 49.081,45.652 C49.082,45.672 49.081,45.692 49.081,45.708 Z" id="path-1" class="cls-2" fill-rule="evenodd"/>
</svg>
