<svg xmlns="http://www.w3.org/2000/svg" xmlns:xlink="http://www.w3.org/1999/xlink" preserveAspectRatio="xMidYMid" width="91" height="86" viewBox="0 0 91 86">
  <defs>
    <style>

      .cls-2 {
        stroke: #f6f6f6;
        stroke-width: 3px;
        fill: none;
      }
    </style>
  </defs>
  <path d="M48.553,3.903 C49.662,5.514 50.841,7.050 52.482,7.093 C52.482,7.093 52.556,7.095 52.556,7.095 C52.556,7.095 52.602,7.095 52.602,7.095 C52.929,7.095 53.228,7.037 53.491,6.959 C53.606,7.269 53.766,7.605 54.006,7.931 C54.700,8.869 55.747,9.344 57.118,9.344 C57.294,9.344 57.471,9.338 57.648,9.330 C57.765,9.326 57.882,9.320 57.997,9.320 C58.007,9.320 58.018,9.320 58.029,9.320 C58.064,9.320 58.098,9.321 58.130,9.325 C58.205,9.337 58.262,9.350 58.304,9.361 C58.310,9.389 58.316,9.425 58.321,9.468 C58.538,11.196 59.742,13.422 61.620,14.332 C62.198,14.612 62.775,14.754 63.338,14.754 C63.899,14.754 64.381,14.619 64.793,14.417 C65.391,15.914 66.454,17.185 67.755,17.898 C68.849,18.498 70.148,18.842 71.319,18.842 C71.595,18.842 71.863,18.823 72.122,18.787 C72.843,19.214 73.767,19.444 74.834,19.444 C74.943,19.444 75.053,19.442 75.161,19.436 C76.161,20.626 77.715,21.257 79.069,21.262 C79.535,21.265 80.134,21.451 80.768,21.648 C80.958,21.707 81.146,21.766 81.332,21.820 C81.332,21.820 81.722,21.936 81.722,21.936 C82.692,22.225 83.782,22.551 84.969,22.623 C84.563,22.962 84.181,23.284 83.867,23.654 C82.552,25.197 82.416,26.842 82.307,28.164 C82.265,28.676 82.224,29.161 82.120,29.590 C82.081,29.752 81.956,30.000 81.823,30.262 C81.625,30.653 81.378,31.141 81.219,31.725 C80.860,33.044 81.062,34.052 81.246,34.971 C81.264,35.060 81.189,35.245 81.002,35.364 C79.164,36.531 74.681,41.488 73.781,42.891 C73.234,43.745 72.993,44.592 72.781,45.339 C72.721,45.549 72.661,45.760 72.597,45.958 C72.576,46.016 72.544,46.086 72.512,46.161 C72.244,46.787 71.839,47.735 72.134,48.764 C72.392,49.662 73.236,50.622 74.831,50.622 C75.565,50.622 76.334,50.421 76.895,50.274 C77.027,50.239 77.142,50.207 77.203,50.195 C77.203,50.195 77.257,50.186 77.257,50.186 C77.519,50.146 77.833,50.097 78.115,50.081 C78.278,51.040 78.572,52.603 79.529,53.506 C79.526,53.806 79.522,54.114 79.518,54.385 C79.502,55.496 79.500,55.911 79.534,56.216 C79.555,56.409 79.589,56.604 79.624,56.800 C78.999,57.135 77.906,57.754 77.547,59.200 C77.141,60.833 77.937,62.126 78.464,62.981 C78.603,63.207 78.813,63.548 78.846,63.662 C78.855,63.753 78.794,64.048 78.753,64.243 C78.638,64.787 78.482,65.532 78.633,66.392 C78.935,68.110 80.182,69.213 82.338,69.671 C82.460,69.697 82.775,69.764 82.973,69.831 C83.020,70.079 83.051,70.355 83.078,70.647 C81.793,71.131 80.412,71.724 79.205,72.751 C78.669,73.206 78.218,73.688 77.782,74.152 C77.144,74.832 76.593,75.420 75.974,75.718 C75.259,76.064 74.190,76.270 73.115,76.270 C73.011,76.270 72.909,76.268 72.809,76.264 C72.176,76.239 71.339,75.537 70.601,74.918 C70.601,74.918 70.434,74.778 70.434,74.778 C70.434,74.778 70.391,74.742 70.391,74.742 C69.801,74.248 68.994,73.573 67.847,73.329 C67.580,73.273 67.311,73.244 67.047,73.244 C66.155,73.244 65.480,73.566 65.033,73.779 C64.939,73.824 64.844,73.872 64.742,73.913 C64.513,73.849 64.034,73.552 63.740,73.368 C63.366,73.136 62.979,72.896 62.547,72.699 C61.864,72.388 61.215,72.237 60.564,72.237 C59.068,72.237 58.031,73.041 57.199,73.688 C57.087,73.775 56.972,73.865 56.853,73.954 C56.560,74.175 56.182,74.309 55.702,74.477 C55.258,74.633 54.756,74.810 54.219,75.093 C51.995,76.264 51.644,78.987 51.596,80.103 C51.571,80.698 51.652,81.242 51.786,81.740 C51.607,81.789 51.434,81.839 51.265,81.886 C50.970,81.971 50.667,82.058 50.347,82.132 C50.037,82.204 49.672,82.243 49.318,82.243 C48.457,82.243 47.858,82.026 47.646,81.809 C47.573,81.736 47.503,81.659 47.432,81.581 C47.016,81.129 46.386,80.446 45.388,80.104 C45.055,79.991 44.700,79.932 44.332,79.932 C44.154,79.932 43.991,79.946 43.848,79.962 C43.742,79.837 43.619,79.697 43.474,79.559 C42.629,78.754 41.611,78.328 40.530,78.328 C40.279,78.328 40.024,78.352 39.768,78.398 C38.721,78.587 38.024,79.106 37.508,79.514 C37.475,79.509 37.440,79.503 37.403,79.498 C37.170,79.465 36.932,79.449 36.676,79.449 C36.203,79.449 35.763,79.506 35.375,79.555 C35.087,79.592 34.815,79.627 34.610,79.627 C34.496,79.627 34.450,79.616 34.448,79.616 C34.448,79.616 34.448,79.616 34.448,79.616 C34.219,79.521 33.927,79.320 33.617,79.106 C32.856,78.580 31.812,77.861 30.360,77.812 C30.360,77.812 30.212,77.809 30.212,77.809 C29.876,77.809 29.572,77.847 29.328,77.877 C29.306,77.880 29.284,77.883 29.261,77.886 C29.074,77.595 28.803,77.202 28.376,76.850 C27.591,76.203 26.777,76.107 26.291,76.050 C26.214,76.041 26.136,76.038 26.100,76.034 C26.084,76.025 26.018,75.983 25.836,75.807 C25.658,75.635 25.480,75.444 25.296,75.228 C26.664,72.764 27.390,69.792 27.458,66.366 C28.389,65.533 28.581,64.372 27.961,63.329 C28.001,63.170 28.068,62.960 28.118,62.805 C28.206,62.531 28.297,62.249 28.365,61.942 C28.432,61.638 28.472,61.271 28.502,60.808 C28.560,60.812 28.619,60.815 28.679,60.815 C29.373,60.815 30.033,60.482 30.444,59.923 C31.162,58.948 30.812,57.820 30.680,57.394 C30.367,56.387 29.847,55.506 29.389,54.728 C29.389,54.728 29.251,54.495 29.251,54.495 C29.251,54.495 29.196,54.398 29.196,54.398 C29.066,54.174 28.908,53.900 28.688,53.617 C28.759,53.526 28.825,53.429 28.885,53.327 C29.457,52.363 29.497,51.045 28.985,50.049 C28.363,48.839 27.205,47.919 26.168,47.153 C25.701,46.808 25.227,46.616 24.845,46.461 C24.763,46.428 24.662,46.388 24.583,46.353 C24.199,45.708 23.280,44.333 22.305,43.225 C22.538,42.776 22.709,42.183 22.594,41.458 C23.162,40.882 23.273,40.224 23.234,39.697 C23.206,39.307 22.923,37.361 20.104,37.361 C19.932,37.361 19.794,37.370 19.713,37.377 C19.664,37.381 19.617,37.386 19.569,37.392 C19.480,36.949 19.292,36.522 19.010,36.135 C18.357,35.241 17.275,34.686 16.186,34.686 C15.880,34.686 15.579,34.729 15.288,34.815 C15.236,34.830 15.189,34.844 15.146,34.858 C14.951,34.835 14.803,34.826 14.676,34.826 C14.431,34.826 14.215,34.856 14.022,34.904 C13.992,34.869 13.963,34.835 13.932,34.800 C13.312,34.097 12.311,33.710 10.729,33.138 C10.311,32.987 9.700,32.766 9.441,32.642 C9.434,32.634 9.426,32.626 9.419,32.618 C9.161,32.347 8.475,31.627 7.278,31.627 C7.196,31.627 7.110,31.630 7.021,31.638 C6.979,31.641 6.939,31.645 6.899,31.651 C6.920,31.173 6.807,30.555 6.318,29.904 C6.365,29.450 6.275,28.989 6.046,28.570 C5.965,28.421 5.871,28.287 5.767,28.167 C5.835,28.166 5.906,28.165 5.979,28.165 C6.552,28.162 7.200,28.160 7.886,28.054 C8.496,27.960 9.069,27.665 9.954,27.192 C10.271,27.021 10.785,26.746 11.023,26.655 C11.244,26.637 11.451,26.628 11.638,26.628 C12.198,26.628 12.459,26.708 12.543,26.742 C12.607,26.813 12.718,26.968 12.802,27.085 C13.022,27.393 13.297,27.777 13.693,28.135 C14.247,28.636 14.948,28.900 15.721,28.900 C16.528,28.900 17.239,28.612 17.810,28.380 C17.909,28.340 18.037,28.288 18.147,28.247 C18.459,28.381 18.925,28.558 19.506,28.558 C19.772,28.558 20.035,28.520 20.288,28.446 C20.505,28.383 20.700,28.297 20.873,28.201 C20.987,28.286 21.113,28.369 21.254,28.445 C21.829,28.756 22.523,28.950 23.158,28.977 C23.208,28.979 23.258,28.980 23.305,28.980 C24.333,28.980 25.192,28.514 25.664,27.702 C25.962,27.189 26.338,26.110 25.508,24.650 C25.371,24.410 25.236,24.202 25.108,24.005 C24.868,23.637 24.827,23.565 24.797,23.386 C24.703,22.832 24.770,22.048 24.829,21.356 C24.857,21.033 24.884,20.715 24.898,20.405 C25.394,20.673 25.999,20.883 26.675,20.883 C26.821,20.883 26.966,20.874 27.108,20.854 C27.373,20.817 27.603,20.748 27.793,20.676 C27.859,20.709 27.926,20.739 27.994,20.768 C28.949,21.171 29.890,21.231 30.685,21.237 C30.685,21.237 30.767,21.238 30.767,21.238 C30.767,21.238 31.096,21.240 31.096,21.240 C32.279,21.240 35.877,21.240 36.515,18.422 C36.655,17.803 36.618,17.242 36.591,16.832 C36.582,16.705 36.571,16.538 36.574,16.451 C36.600,16.417 36.669,16.338 36.829,16.227 C39.753,15.364 43.704,13.336 44.985,12.020 C46.613,10.345 46.268,8.035 46.040,6.506 C45.996,6.216 45.954,5.938 45.931,5.685 C45.920,5.558 45.905,5.420 45.890,5.275 C45.863,5.020 45.815,4.566 45.818,4.241 C45.971,4.225 46.142,4.213 46.268,4.204 C46.390,4.196 46.509,4.187 46.626,4.177 C47.291,4.119 47.930,4.029 48.553,3.903 M49.454,1.501 C48.467,1.800 47.469,1.982 46.442,2.072 C45.844,2.124 45.129,2.125 44.576,2.395 C43.384,2.979 43.734,4.817 43.828,5.871 C43.954,7.297 44.601,9.384 43.471,10.546 C42.484,11.561 38.652,13.542 35.961,14.277 C35.321,14.650 34.717,15.172 34.526,15.916 C34.352,16.589 34.605,17.296 34.455,17.955 C34.209,19.043 32.220,19.126 31.096,19.126 C30.947,19.126 30.812,19.126 30.700,19.124 C30.059,19.119 29.410,19.072 28.815,18.821 C28.473,18.677 28.221,18.433 27.838,18.433 C27.826,18.433 27.813,18.434 27.801,18.434 C27.446,18.448 27.161,18.713 26.820,18.760 C26.772,18.767 26.724,18.770 26.675,18.770 C26.162,18.770 25.622,18.415 25.266,18.086 C24.673,17.539 24.665,17.194 25.046,16.526 C25.397,15.910 25.252,15.219 24.366,15.219 C24.360,15.219 24.353,15.219 24.346,15.219 C23.849,15.225 23.606,15.748 23.101,15.748 C23.090,15.748 23.080,15.748 23.069,15.748 C22.788,15.736 21.262,15.085 20.533,15.085 C20.202,15.085 20.035,15.219 20.225,15.609 C20.412,15.995 20.717,16.316 20.893,16.732 C21.027,17.050 21.131,17.383 21.293,17.688 C21.639,18.337 22.376,18.599 22.699,19.244 C23.013,20.111 22.442,22.124 22.715,23.737 C22.861,24.604 23.261,24.972 23.672,25.695 C24.006,26.283 24.039,26.867 23.305,26.867 C23.286,26.867 23.265,26.867 23.245,26.866 C22.922,26.852 22.541,26.740 22.258,26.586 C21.878,26.380 21.765,26.022 21.450,25.769 C21.278,25.631 21.127,25.576 20.990,25.576 C20.502,25.576 20.187,26.274 19.695,26.418 C19.631,26.436 19.568,26.445 19.506,26.445 C19.162,26.445 18.830,26.202 18.513,26.122 C18.424,26.089 18.328,26.075 18.226,26.075 C17.502,26.075 16.497,26.788 15.721,26.788 C15.493,26.788 15.284,26.726 15.108,26.567 C14.566,26.077 14.285,25.310 13.644,24.934 C13.092,24.609 12.343,24.515 11.638,24.514 C11.310,24.514 10.992,24.535 10.707,24.562 C9.989,24.630 8.179,25.872 7.565,25.966 C5.815,26.235 4.017,25.642 2.608,27.026 C2.244,27.384 1.422,28.322 1.500,28.884 C1.549,29.235 1.781,29.322 2.062,29.322 C2.306,29.322 2.588,29.255 2.815,29.239 C2.832,29.237 2.855,29.237 2.883,29.237 C3.246,29.237 4.459,29.350 4.173,29.798 C4.030,30.022 2.471,29.758 3.183,30.474 C3.537,30.830 4.194,30.655 4.574,31.104 C5.229,31.879 4.256,31.946 3.653,32.026 C3.194,32.088 1.888,32.222 2.519,32.818 C3.007,33.279 3.908,33.123 4.319,33.759 C4.547,34.112 4.437,34.488 4.939,34.630 C5.025,34.654 5.110,34.665 5.192,34.665 C5.924,34.665 6.509,33.801 7.198,33.743 C7.225,33.741 7.252,33.740 7.278,33.740 C7.701,33.740 7.811,34.055 8.163,34.334 C8.786,34.832 11.815,35.593 12.348,36.198 C12.801,36.712 13.067,37.301 13.603,37.301 C13.760,37.301 13.941,37.250 14.156,37.132 C14.413,36.990 14.504,36.939 14.676,36.939 C14.747,36.939 14.833,36.948 14.949,36.962 C15.092,36.981 15.192,36.990 15.274,36.990 C15.474,36.990 15.562,36.937 15.886,36.841 C15.983,36.812 16.084,36.799 16.186,36.799 C16.930,36.799 17.712,37.521 17.473,38.271 C17.299,38.818 16.554,39.264 17.284,39.715 C17.486,39.840 17.710,39.887 17.946,39.887 C18.595,39.887 19.327,39.531 19.898,39.482 C19.940,39.478 20.013,39.474 20.104,39.474 C20.466,39.474 21.105,39.530 21.128,39.849 C21.155,40.218 20.148,40.281 19.993,40.650 C19.795,41.121 20.433,41.350 20.507,41.780 C20.653,42.639 19.338,42.827 19.882,43.787 C21.009,44.699 22.603,47.090 22.846,47.570 C23.218,48.305 24.253,48.364 24.913,48.853 C25.654,49.400 26.678,50.181 27.107,51.015 C27.370,51.526 27.240,52.588 26.472,52.608 C26.468,52.608 26.464,52.608 26.461,52.608 C25.960,52.608 25.703,51.780 25.208,51.779 C25.188,51.779 25.168,51.781 25.147,51.784 C24.432,51.879 24.893,52.631 25.139,52.929 C25.467,53.328 25.802,53.856 26.133,54.216 C26.301,54.399 26.581,54.484 26.770,54.646 C27.062,54.899 27.236,55.232 27.428,55.560 C27.881,56.333 28.395,57.160 28.663,58.021 C28.815,58.513 28.797,58.701 28.679,58.701 C28.286,58.701 26.787,56.624 26.747,56.624 C26.747,56.624 26.746,56.624 26.746,56.624 C26.399,56.740 26.519,60.499 26.302,61.488 C26.144,62.206 25.665,63.140 25.860,63.890 C26.006,64.447 26.480,64.450 26.001,64.832 C25.570,65.176 25.411,65.086 25.358,65.711 C25.312,66.255 25.614,71.277 22.732,75.343 C23.219,76.042 23.756,76.735 24.369,77.327 C24.717,77.662 25.065,77.947 25.540,78.066 C26.070,78.200 26.583,78.110 27.034,78.482 C27.571,78.924 27.673,79.673 28.381,79.933 C28.571,80.003 28.766,80.027 28.963,80.027 C29.377,80.027 29.801,79.922 30.212,79.922 C30.238,79.922 30.263,79.922 30.289,79.923 C31.627,79.969 32.482,81.090 33.642,81.569 C33.952,81.697 34.277,81.740 34.610,81.740 C35.288,81.740 35.999,81.562 36.676,81.562 C36.822,81.562 36.966,81.570 37.109,81.590 C37.344,81.623 37.537,81.647 37.711,81.647 C38.066,81.647 38.342,81.550 38.736,81.236 C39.179,80.884 39.564,80.582 40.144,80.477 C40.277,80.453 40.405,80.441 40.530,80.441 C41.096,80.441 41.586,80.678 42.017,81.089 C42.360,81.416 42.656,81.977 43.146,82.107 C43.238,82.131 43.331,82.140 43.425,82.140 C43.723,82.140 44.025,82.046 44.332,82.046 C44.455,82.046 44.580,82.061 44.705,82.104 C45.321,82.314 45.704,82.847 46.140,83.290 C46.895,84.061 48.142,84.356 49.318,84.356 C49.851,84.356 50.369,84.296 50.821,84.191 C51.982,83.923 52.929,83.509 54.060,83.509 C54.297,83.509 54.543,83.527 54.800,83.569 C54.395,82.453 53.654,81.422 53.706,80.193 C53.754,79.066 54.123,77.531 55.203,76.962 C56.190,76.442 57.193,76.344 58.125,75.641 C59.016,74.969 59.662,74.349 60.564,74.349 C60.892,74.349 61.253,74.431 61.673,74.622 C62.621,75.054 63.672,76.036 64.775,76.036 C64.968,76.036 65.162,76.006 65.357,75.938 C65.974,75.724 66.419,75.357 67.047,75.357 C67.161,75.357 67.281,75.369 67.408,75.396 C68.061,75.535 68.582,75.983 69.080,76.399 C70.120,77.269 71.297,78.319 72.727,78.375 C72.854,78.380 72.983,78.383 73.115,78.383 C74.373,78.383 75.789,78.153 76.891,77.622 C78.402,76.892 79.324,75.423 80.572,74.361 C81.945,73.193 83.694,72.695 85.347,72.058 C85.198,71.118 85.210,70.118 84.998,69.195 C84.741,68.080 83.796,67.820 82.777,67.604 C81.861,67.409 80.895,67.064 80.713,66.025 C80.548,65.088 81.111,64.209 80.917,63.249 C80.679,62.076 79.278,60.991 79.597,59.708 C79.884,58.550 81.487,58.714 81.755,57.532 C81.871,57.018 81.689,56.490 81.632,55.981 C81.583,55.539 81.687,52.928 81.618,52.054 C81.532,52.083 81.452,52.097 81.377,52.097 C80.274,52.097 80.242,49.194 79.966,48.694 C79.648,48.117 78.976,47.963 78.288,47.963 C77.783,47.963 77.269,48.047 76.881,48.106 C76.509,48.164 75.513,48.509 74.831,48.509 C74.494,48.509 74.234,48.425 74.164,48.180 C74.045,47.765 74.477,47.004 74.600,46.627 C74.891,45.733 75.043,44.837 75.559,44.032 C76.361,42.781 80.656,38.086 82.134,37.148 C83.022,36.584 83.516,35.548 83.317,34.556 C83.153,33.741 83.026,33.128 83.256,32.281 C83.468,31.504 83.984,30.865 84.172,30.090 C84.606,28.301 84.170,26.555 85.474,25.025 C86.170,24.203 88.158,23.114 88.038,21.865 C88.037,21.857 88.036,21.849 88.035,21.841 C87.877,20.421 86.387,20.553 85.298,20.523 C84.144,20.492 83.026,20.115 81.926,19.792 C81.009,19.524 80.045,19.155 79.080,19.149 C77.906,19.144 76.569,18.354 76.290,17.098 C75.974,17.232 75.419,17.331 74.834,17.331 C73.948,17.331 72.993,17.103 72.685,16.421 C72.282,16.638 71.809,16.729 71.319,16.729 C70.421,16.729 69.465,16.426 68.770,16.045 C67.546,15.374 66.711,13.975 66.462,12.626 C66.393,12.252 66.576,11.051 66.161,10.830 C66.105,10.800 66.046,10.787 65.987,10.787 C65.678,10.787 65.347,11.149 65.163,11.334 C64.547,11.955 64.100,12.641 63.338,12.641 C63.106,12.641 62.845,12.578 62.541,12.430 C61.452,11.903 60.564,10.375 60.416,9.204 C60.269,8.027 59.651,7.423 58.454,7.237 C58.308,7.215 58.155,7.207 57.997,7.207 C57.711,7.207 57.411,7.231 57.118,7.231 C56.573,7.231 56.055,7.148 55.704,6.674 C55.107,5.866 55.482,4.504 54.218,4.504 C54.170,4.504 54.120,4.506 54.067,4.510 C53.592,4.547 53.044,4.982 52.602,4.982 C52.592,4.982 52.583,4.982 52.574,4.982 C51.620,4.957 50.124,2.374 49.454,1.501 C49.454,1.501 49.454,1.501 49.454,1.501 ZM87.995,21.453 C87.995,21.453 87.995,21.453 87.995,21.453 C87.995,21.453 87.995,21.453 87.995,21.453 C87.995,21.453 87.995,21.453 87.995,21.453 ZM87.995,21.453 C87.995,21.453 88.015,21.645 88.035,21.841 C88.036,21.846 88.036,21.850 88.037,21.855 C88.006,21.561 87.995,21.453 87.995,21.453 C87.995,21.453 87.995,21.453 87.995,21.453 ZM88.037,21.855 C88.037,21.858 88.037,21.861 88.038,21.865 C88.058,22.063 88.079,22.258 88.079,22.258 C88.079,22.258 88.068,22.150 88.037,21.855 C88.037,21.855 88.037,21.855 88.037,21.855 ZM81.625,52.052 C81.625,52.052 81.618,52.054 81.618,52.054 C81.618,52.054 81.618,52.054 81.618,52.054 C81.620,52.054 81.622,52.053 81.625,52.052 C81.625,52.052 81.625,52.052 81.625,52.052 Z" id="path-1" class="cls-2" fill-rule="evenodd"/>
</svg>
