<?xml version="1.0" standalone="no"?>
<!DOCTYPE svg PUBLIC "-//W3C//DTD SVG 20010904//EN"
 "http://www.w3.org/TR/2001/REC-SVG-20010904/DTD/svg10.dtd">
<svg version="1.0" xmlns="http://www.w3.org/2000/svg"
 width="80.000000pt" height="79.000000pt" viewBox="0 0 80.000000 79.000000"
 preserveAspectRatio="xMidYMid meet">
<metadata>
Created by potrace 1.15, written by Peter Selinger 2001-2017
</metadata>
<g transform="translate(0.000000,79.000000) scale(0.100000,-0.100000)"
fill="#000000" stroke="none">
<path d="M0 685 c0 -101 1 -105 19 -95 11 5 55 10 99 10 l79 0 -5 48 c-4 44
-1 52 28 85 39 44 85 56 131 33 29 -15 33 -14 57 4 l25 20 -217 0 -216 0 0
-105z"/>
<path d="M575 766 c33 -33 51 -96 37 -135 l-11 -31 73 0 c48 0 79 -5 92 -15
10 -8 22 -15 27 -15 4 0 7 50 7 110 l0 110 -125 0 -124 0 24 -24z"/>
<path d="M60 500 l0 -40 150 0 150 0 0 40 0 40 -150 0 -150 0 0 -40z"/>
<path d="M420 500 l0 -40 150 0 150 0 0 40 0 40 -150 0 -150 0 0 -40z"/>
<path d="M770 415 c-7 -8 -21 -15 -31 -15 -18 0 -19 -10 -19 -169 0 -153 -2
-171 -20 -194 -11 -14 -20 -28 -20 -31 0 -3 27 -6 60 -6 l60 0 0 215 c0 118
-4 215 -9 215 -5 0 -14 -7 -21 -15z"/>
<path d="M0 210 l0 -210 50 0 c28 0 50 3 50 6 0 3 -9 18 -20 32 -19 24 -21 39
-19 190 l1 165 -31 13 -31 13 0 -209z"/>
<path d="M130 240 l0 -160 115 0 115 0 0 160 0 160 -115 0 -115 0 0 -160z"/>
<path d="M420 240 l0 -160 115 0 115 0 0 160 0 160 -115 0 -115 0 0 -160z"/>
</g>
</svg>
