<?xml version="1.0" standalone="no"?>
<!DOCTYPE svg PUBLIC "-//W3C//DTD SVG 20010904//EN"
 "http://www.w3.org/TR/2001/REC-SVG-20010904/DTD/svg10.dtd">
<svg version="1.0" xmlns="http://www.w3.org/2000/svg"
 width="80.000000pt" height="79.000000pt" viewBox="0 0 80.000000 79.000000"
 preserveAspectRatio="xMidYMid meet">

<g transform="translate(0.000000,79.000000) scale(0.100000,-0.100000)"
fill="#000000" stroke="none">
<path d="M0 395 l0 -395 400 0 400 0 0 395 0 395 -400 0 -400 0 0 -395z m535
369 c20 -9 40 -30 50 -51 17 -35 15 -57 -11 -120 -4 -10 16 -13 85 -13 103 0
111 -6 111 -80 0 -54 -15 -80 -45 -80 l-24 0 -3 -178 c-2 -133 -7 -183 -17
-195 -12 -15 -45 -17 -291 -17 -218 0 -280 3 -289 13 -6 8 -12 81 -13 193 l-3
179 -25 3 c-35 5 -50 29 -50 80 0 78 6 82 121 82 93 0 100 1 93 18 -4 9 -9 34
-12 54 -3 32 1 42 26 68 36 35 78 39 124 13 28 -17 30 -17 40 0 10 19 61 46
86 47 8 0 29 -7 47 -16z"/>
<path d="M430 730 c-24 -24 -32 -55 -28 -106 l3 -39 58 1 c46 1 63 6 82 24 33
31 34 88 2 118 -30 29 -89 30 -117 2z"/>
<path d="M255 705 c-47 -46 -22 -107 48 -120 61 -12 72 -5 75 48 3 39 -1 51
-22 72 -32 32 -70 32 -101 0z"/>
<path d="M44 546 c-3 -7 -4 -33 -2 -57 l3 -44 168 -3 167 -2 0 60 0 60 -165 0
c-132 0 -167 -3 -171 -14z"/>
<path d="M400 500 l0 -60 163 0 c178 0 187 3 187 56 0 66 5 64 -181 64 l-169
0 0 -60z"/>
<path d="M115 407 c-3 -7 -4 -89 -3 -182 l3 -170 133 -3 132 -3 -2 183 -3 183
-128 3 c-98 2 -129 0 -132 -11z"/>
<path d="M407 413 c-4 -3 -7 -87 -7 -185 l0 -179 133 3 132 3 3 183 2 182
-128 0 c-71 0 -132 -3 -135 -7z"/>
</g>
</svg>
