<svg xmlns="http://www.w3.org/2000/svg" xmlns:xlink="http://www.w3.org/1999/xlink" preserveAspectRatio="xMidYMid" width="29" height="19" viewBox="0 0 29 19">
  <defs>
    <style>

      .cls-2 {
        fill: #f6f6f6;
      }
    </style>
  </defs>
  <path d="M2.307,-0.000 C1.841,-0.000 1.412,0.150 1.050,0.411 C1.050,0.411 13.480,11.259 13.480,11.259 C14.139,11.832 14.840,11.832 15.499,11.259 C15.499,11.259 27.950,0.411 27.950,0.411 C27.588,0.150 27.159,-0.000 26.693,-0.000 C26.693,-0.000 2.307,-0.000 2.307,-0.000 ZM0.196,1.542 C0.074,1.854 -0.000,2.194 -0.000,2.558 C-0.000,2.558 -0.000,16.442 -0.000,16.442 C-0.000,17.859 1.029,19.000 2.307,19.000 C2.307,19.000 26.693,19.000 26.693,19.000 C27.971,19.000 29.000,17.859 29.000,16.442 C29.000,16.442 29.000,2.558 29.000,2.558 C29.000,2.194 28.926,1.854 28.804,1.542 C28.804,1.542 16.323,12.400 16.323,12.400 C15.240,13.343 13.740,13.345 12.657,12.400 C12.657,12.400 0.196,1.542 0.196,1.542 Z" id="path-1" class="cls-2" fill-rule="evenodd"/>
</svg>
