<svg xmlns="http://www.w3.org/2000/svg" xmlns:xlink="http://www.w3.org/1999/xlink" preserveAspectRatio="xMidYMid" width="26" height="26" viewBox="0 0 26 26">
  <defs>
    <style>

      .cls-2 {
        fill: #f6f6f6;
      }
    </style>
  </defs>
  <path d="M20.250,25.997 C19.427,25.997 18.566,25.735 17.855,25.212 C17.855,25.212 16.245,24.053 16.245,24.053 C10.706,20.091 5.915,15.306 1.947,9.811 C1.947,9.811 0.787,8.203 0.787,8.203 C-0.411,6.558 -0.224,4.315 1.236,2.857 C1.236,2.857 3.931,0.166 3.931,0.166 C4.156,-0.058 4.492,-0.058 4.717,0.166 C4.717,0.166 8.497,3.942 8.497,3.942 C8.872,4.315 9.096,4.839 9.096,5.399 C9.096,5.960 8.872,6.484 8.497,6.857 C8.497,6.857 6.663,8.689 6.663,8.689 C9.658,12.764 13.251,16.352 17.331,19.343 C17.331,19.343 19.128,17.549 19.128,17.549 C19.502,17.175 20.026,16.950 20.587,16.950 C21.149,16.950 21.673,17.175 22.047,17.549 C22.047,17.549 25.827,21.324 25.827,21.324 C26.052,21.548 26.052,21.885 25.827,22.109 C25.827,22.109 23.132,24.800 23.132,24.800 C22.384,25.585 21.298,25.997 20.250,25.997 Z" id="path-1" class="cls-2" fill-rule="evenodd"/>
</svg>
