<svg xmlns="http://www.w3.org/2000/svg" preserveAspectRatio="xMidYMid" width="22" height="38"><defs><filter id="a" filterUnits="userSpaceOnUse"><feFlood flood-color="#665f60" flood-opacity="1"/><feComposite operator="in" in2="SourceGraphic"/><feBlend in2="SourceGraphic" result="colorOverlay"/></filter></defs><path d="M21.997 18.999c-.002.034-.002.066-.007.099-.011.356-.168.7-.472.891L1.461 37.856c-.468.295-1.067.12-1.338-.39-.271-.51-.11-1.163.358-1.457l19.096-17.01L.481 1.989C.013 1.695-.148 1.042.123.532c.271-.51.87-.684 1.338-.39l20.057 17.866c.304.192.461.536.472.892.005.033.005.065.007.099z" fill-rule="evenodd" fill="#e6e6e6" filter="url(#a)"/></svg>