<svg xmlns="http://www.w3.org/2000/svg" preserveAspectRatio="xMidYMid" width="32" height="32"><defs><filter id="a" filterUnits="userSpaceOnUse"><feFlood flood-color="#ebebeb" flood-opacity="1"/><feComposite operator="in" in2="SourceGraphic"/><feBlend in2="SourceGraphic" result="colorOverlay"/></filter></defs><path d="M16 32C7.164 32 0 24.837 0 16S7.164 0 16 0c8.837 0 16 7.163 16 16s-7.163 16-16 16zm-1.95-16.586c1.069-.491 1.672-1.293 1.672-2.441 0-2.179-1.585-2.973-3.929-2.973H6v11.771h5.964c2.224 0 4.344-1.016 4.344-3.392 0-1.457-.758-2.555-2.258-2.965zm10.105-4.623h-4.931v1.573h4.931v-1.573zm-2.654 2.281c-2.705 0-4.576 1.933-4.576 4.473 0 2.621 1.767 4.455 4.576 4.455 2.018 0 3.587-1.048 4.275-3.048h-2.154c-.155.525-1.052 1.295-2.035 1.295-1.361 0-2.119-.942-2.188-2.417h6.429c.172-2.605-1.293-4.758-4.327-4.758zm-.069 1.753c1.189 0 1.725.303 1.949 1.482h-3.982c.034-.655.482-1.482 2.033-1.482zm-9.83 5.045H8.475v-3.211h3.179c1.155 0 1.87.475 1.87 1.67 0 1.214-.853 1.541-1.922 1.541zm-.155-5.161H8.475v-2.735h2.766c.964 0 1.861.23 1.861 1.344 0 .982-.707 1.391-1.655 1.391z" fill-rule="evenodd" fill="#0188f5" filter="url(#a)"/></svg>