<svg xmlns="http://www.w3.org/2000/svg" preserveAspectRatio="xMidYMid" width="32" height="32"><defs><filter id="a" filterUnits="userSpaceOnUse"><feFlood flood-color="#ebebeb" flood-opacity="1"/><feComposite operator="in" in2="SourceGraphic"/><feBlend in2="SourceGraphic" result="colorOverlay"/></filter></defs><path d="M16 32.01c-.572 0-1.135-.033-1.691-.091 2.576-1.257 3.937-3.436 3.937-5.618 0-2.447-1.367-3.652-2.873-4.963l-1.232-.994c-.376-.318-.889-.743-.889-1.523 0-.779.513-1.276.958-1.737 1.436-1.17 2.873-2.41 2.873-5.033 0-2.695-1.642-4.113-2.429-4.786h2.121l2.189-1.276h-7.046c-1.848 0-4.173.284-6.123 1.949-1.471 1.312-2.19 3.12-2.19 4.751 0 2.765 2.053 5.565 5.679 5.565.342 0 .718-.036 1.095-.071-.172.425-.342.779-.342 1.383 0 1.098.546 1.772 1.025 2.41-1.538.106-4.412.283-6.533 1.63a5.823 5.823 0 0 0-1.67 1.516A15.924 15.924 0 0 1 0 16.004C0 7.166 7.163 0 16 0s16 7.166 16 16.004c0 8.84-7.163 16.006-16 16.006zM26.906 9h-3V6h-2v3h-3v2h3v3h2v-3h3V9zM6.615 10.951c0-.921.171-1.878.753-2.622.548-.709 1.505-1.171 2.394-1.171 2.841 0 4.311 3.97 4.311 6.523 0 .638-.069 1.773-.854 2.588-.548.567-1.473.992-2.328.992-2.942 0-4.276-3.935-4.276-6.31zm1.232 12.585c1.437-.497 3.284-.569 3.592-.569.341 0 .513 0 .786.037 2.601 1.914 3.729 2.871 3.729 4.679 0 1.975-1.42 3.48-4.09 3.767a15.957 15.957 0 0 1-6.915-3.889c-.012-.126-.044-.245-.044-.374 0-2.517 2.19-3.368 2.942-3.651z" fill-rule="evenodd" fill="#da4935" filter="url(#a)"/></svg>