<svg xmlns="http://www.w3.org/2000/svg" preserveAspectRatio="xMidYMid" width="32" height="32"><defs><filter id="a" filterUnits="userSpaceOnUse"><feFlood flood-color="#ebebeb" flood-opacity="1"/><feComposite operator="in" in2="SourceGraphic"/><feBlend in2="SourceGraphic" result="colorOverlay"/></filter></defs><path d="M16 32C7.164 32 0 24.837 0 16S7.164 0 16 0c8.837 0 16 7.163 16 16s-7.163 16-16 16zm9.399-23.394a7.014 7.014 0 0 1-2.345.98c-.673-.785-1.633-1.276-2.696-1.276-2.039 0-3.693 1.809-3.693 4.04 0 .316.033.625.096.921-3.07-.169-5.791-1.777-7.613-4.221a4.326 4.326 0 0 0-.5 2.031c0 1.401.652 2.638 1.643 3.362a3.436 3.436 0 0 1-1.672-.505l-.001.051c0 1.957 1.273 3.589 2.963 3.961a3.412 3.412 0 0 1-1.668.069c.47 1.605 1.834 2.773 3.45 2.805-1.264 1.084-2.856 1.73-4.587 1.73-.298 0-.592-.019-.881-.057 1.635 1.146 3.576 1.815 5.662 1.815 6.793 0 10.508-6.155 10.508-11.494 0-.175-.004-.349-.011-.522a7.917 7.917 0 0 0 1.843-2.091 6.92 6.92 0 0 1-2.121.636 4.008 4.008 0 0 0 1.623-2.235z" fill-rule="evenodd" fill="#4e9edc" filter="url(#a)"/></svg>